<svg xmlns="http://www.w3.org/2000/svg" aria-hidden="true" style="position:absolute;width:0;height:0;overflow:hidden"><defs><symbol id="icon-logo" viewBox="0 0 32 32"><path d="M25.361 28.749c.453-1.493 2.06-7.177 2.06-12.749s-1.607-11.257-2.06-12.749c.247-.213.404-.528.404-.879V1.164c0-.641-.522-1.163-1.163-1.163H7.398c-.641 0-1.163.522-1.163 1.163v1.208c0 .351.157.666.404.879-.453 1.493-2.06 7.177-2.06 12.749 0 5.565 1.61 11.266 2.06 12.749a1.16 1.16 0 0 0-.404.88v1.208c0 .641.522 1.163 1.163 1.163h17.204c.641 0 1.163-.522 1.163-1.163v-1.208c0-.351-.157-.666-.404-.879zM7.232 1.163c0-.092.075-.166.166-.166h17.204c.092 0 .166.075.166.166v1.208a.166.166 0 0 1-.166.166h-3.416a.48.48 0 0 0-.255-.001l.003-.001-.006.002h-4.801a.488.488 0 0 0-.255 0h-4.801l-.006-.002a.474.474 0 0 0-.255.003l.003-.001H7.397a.166.166 0 0 1-.166-.166V1.163zm.364 2.371h2.706c-1.816 7.529-1.962 15.167-.431 22.714a.499.499 0 0 0 .591.388l-.003.001a.5.5 0 0 0 .388-.591l.001.003c-1.517-7.481-1.354-15.055.481-22.516h4.172v22.615a.5.5 0 0 0 .998 0V3.533h4.172c1.835 7.462 1.998 15.035.481 22.516a.5.5 0 0 0 .977.202l.001-.003c1.531-7.547 1.385-15.186-.431-22.714h2.706c.431 1.433 2.02 7.089 2.02 12.465s-1.59 11.033-2.02 12.465H7.596c-.431-1.42-2.019-7.014-2.019-12.465 0-5.377 1.589-11.033 2.02-12.466zm17.172 27.303a.166.166 0 0 1-.166.166H7.398a.166.166 0 0 1-.166-.166v-1.208c0-.092.075-.166.166-.166h17.204c.092 0 .166.075.166.166v1.208z"/></symbol><symbol id="icon-lab" viewBox="0 0 32 32"><path d="M29.884 25.14 20 8.67V1.999h1c.55 0 1-.45 1-1s-.45-1-1-1H11c-.55 0-1 .45-1 1s.45 1 1 1h1V8.67L2.116 25.14C-.148 28.913 1.6 32 6 32h20c4.4 0 6.148-3.087 3.884-6.86zM7.532 20 14 9.221V2h4v7.221L24.468 20H7.533z"/></symbol><symbol id="icon-bin" viewBox="0 0 32 32"><path d="M4 10v20c0 1.1.9 2 2 2h18c1.1 0 2-.9 2-2V10H4zm6 18H8V14h2v14zm4 0h-2V14h2v14zm4 0h-2V14h2v14zm4 0h-2V14h2v14zM26.5 4H20V1.5c0-.825-.675-1.5-1.5-1.5h-7c-.825 0-1.5.675-1.5 1.5V4H3.5C2.675 4 2 4.675 2 5.5V8h26V5.5c0-.825-.675-1.5-1.5-1.5zM18 4h-6V2.025h6V4z"/></symbol><symbol id="icon-plus" viewBox="0 0 32 32"><path d="M31 12H20V1a1 1 0 0 0-1-1h-6a1 1 0 0 0-1 1v11H1a1 1 0 0 0-1 1v6a1 1 0 0 0 1 1h11v11a1 1 0 0 0 1 1h6a1 1 0 0 0 1-1V20h11a1 1 0 0 0 1-1v-6a1 1 0 0 0-1-1z"/></symbol><symbol id="icon-minus" viewBox="0 0 32 32"><path d="M0 13v6a1 1 0 0 0 1 1h30a1 1 0 0 0 1-1v-6a1 1 0 0 0-1-1H1a1 1 0 0 0-1 1z"/></symbol><symbol id="icon-cross" viewBox="0 0 32 32"><path d="M31.708 25.708 22 16l9.708-9.708a1 1 0 0 0 0-1.414L27.122.292a1 1 0 0 0-1.414-.001L16 9.999 6.292.291a.998.998 0 0 0-1.414.001L.292 4.878a1 1 0 0 0 0 1.414L10 16 .292 25.708a.999.999 0 0 0 0 1.414l4.586 4.586a1 1 0 0 0 1.414 0L16 22l9.708 9.708a1 1 0 0 0 1.414 0l4.586-4.586a.999.999 0 0 0 0-1.414z"/></symbol><symbol id="icon-arrow-left" viewBox="0 0 32 32"><path d="m12.586 27.414-10-10a2 2 0 0 1 0-2.828l10-10a2 2 0 1 1 2.828 2.828L8.828 14H28a2 2 0 1 1 0 4H8.828l6.586 6.586c.39.39.586.902.586 1.414s-.195 1.024-.586 1.414a2 2 0 0 1-2.828 0z"/></symbol><symbol id="icon-sort-numeric-asc" viewBox="0 0 32 32"><path d="M10 24V0H6v24H1l7 7 7-7h-5zM27 14a1 1 0 0 1-1-1V2h-1a1 1 0 0 1 0-2h2a1 1 0 0 1 1 1v12a1 1 0 0 1-1 1zM29 18h-6a1 1 0 0 0-1 1v6a1 1 0 0 0 1 1h5v4h-5a1 1 0 0 0 0 2h6a1 1 0 0 0 1-1V19a1 1 0 0 0-1-1zm-5 2h4v4h-4v-4z"/></symbol><symbol id="icon-sort-numberic-desc" viewBox="0 0 32 32"><path d="M10 24V0H6v24H1l7 7 7-7h-5zM27 32a1 1 0 0 1-1-1V20h-1a1 1 0 0 1 0-2h2a1 1 0 0 1 1 1v12a1 1 0 0 1-1 1zM29 0h-6a1 1 0 0 0-1 1v6a1 1 0 0 0 1 1h5v4h-5a1 1 0 0 0 0 2h6a1 1 0 0 0 1-1V1a1 1 0 0 0-1-1zm-5 2h4v4h-4V2z"/></symbol><symbol id="icon-checkbox-checked" viewBox="0 0 32 32"><path d="M28 0H4C1.8 0 0 1.8 0 4v24c0 2.2 1.8 4 4 4h24c2.2 0 4-1.8 4-4V4c0-2.2-1.8-4-4-4zM14 24.828l-7.414-7.414 2.828-2.828L14 19.172l9.586-9.586 2.828 2.828L14 24.828z"/></symbol><symbol id="icon-checkbox-unchecked" viewBox="0 0 32 32"><path d="M28 0H4C1.8 0 0 1.8 0 4v24c0 2.2 1.8 4 4 4h24c2.2 0 4-1.8 4-4V4c0-2.2-1.8-4-4-4zm0 28H4V4h24v24z"/></symbol></defs></svg>