<svg xmlns="http://www.w3.org/2000/svg" xml:space="preserve" width="200" height="200" viewBox="0 0 481.388 481.388">
  <path d="M381.515 432.486c6.819-22.455 30.99-107.963 30.99-191.792s-24.171-169.337-30.99-191.792c3.715-3.211 6.079-7.946 6.079-13.23V17.5c0-9.649-7.851-17.5-17.5-17.5h-258.8c-9.649 0-17.5 7.851-17.5 17.5v18.171c0 5.284 2.364 10.018 6.079 13.23-6.819 22.454-30.99 107.963-30.99 191.793 0 83.711 24.226 169.476 30.992 191.791-3.716 3.211-6.081 7.946-6.081 13.231v18.171c0 9.649 7.851 17.5 17.5 17.5h258.8c9.649 0 17.5-7.851 17.5-17.5v-18.171c0-5.284-2.364-10.018-6.079-13.23zM108.794 17.5c0-1.378 1.122-2.5 2.5-2.5h258.8c1.379 0 2.5 1.122 2.5 2.5v18.171c0 1.378-1.121 2.5-2.5 2.5h-51.388a7.464 7.464 0 0 0-3.786-.026c-.029.007-.056.019-.085.026h-72.223c-.613-.162-1.254-.257-1.918-.257s-1.304.095-1.918.257h-72.224c-.029-.008-.056-.019-.086-.026a7.453 7.453 0 0 0-3.783.026h-51.39a2.503 2.503 0 0 1-2.5-2.5V17.5zm5.477 35.671h40.711c-27.319 113.256-29.512 228.162-6.487 341.701a7.503 7.503 0 0 0 8.842 5.86 7.5 7.5 0 0 0 5.86-8.841c-22.824-112.546-20.374-226.471 7.235-338.719h62.763v340.207a7.5 7.5 0 0 0 15 0l.001-340.207h62.761c27.609 112.246 30.059 226.171 7.235 338.719a7.5 7.5 0 0 0 14.701 2.981c23.025-113.54 20.832-228.446-6.486-341.7h40.711c6.477 21.556 30.389 106.636 30.389 187.522s-23.912 165.967-30.389 187.522H114.251C107.76 406.86 83.883 322.7 83.883 240.694c0-80.886 23.911-165.967 30.388-187.523zm258.323 410.717c0 1.378-1.121 2.5-2.5 2.5h-258.8a2.503 2.503 0 0 1-2.5-2.5v-18.171c0-1.378 1.122-2.5 2.5-2.5h258.8c1.379 0 2.5 1.122 2.5 2.5v18.171z"/>
</svg>
